<svg width="0" height="0">

<symbol xmlns="http://www.w3.org/2000/svg" id="profile"  width="30"
    height="30" viewBox="0 0 30 30" fill="none">
 <path
      d="M15 0.000671387C6.7166 0.000671387 0 6.71595 0 15C0 23.2841 6.71594 29.9994 15 29.9994C23.2847 29.9994 30 23.2841 30 15C30 6.71595 23.2847 0.000671387 15 0.000671387ZM15 4.48565C17.7409 4.48565 19.962 6.70738 19.962 9.44699C19.962 12.1873 17.7409 14.4083 15 14.4083C12.2604 14.4083 10.0393 12.1873 10.0393 9.44699C10.0393 6.70738 12.2604 4.48565 15 4.48565ZM14.9967 26.0777C12.263 26.0777 9.75929 25.0822 7.82812 23.4343C7.35768 23.033 7.08622 22.4447 7.08622 21.8273C7.08622 19.0488 9.33497 16.8251 12.1141 16.8251H17.8872C20.667 16.8251 22.9072 19.0488 22.9072 21.8273C22.9072 22.4453 22.637 23.0324 22.1659 23.4336C20.2354 25.0822 17.731 26.0777 14.9967 26.0777Z"
      fill="currentColor"
    />
</symbol>

<symbol xmlns="http://www.w3.org/2000/svg" id="search" width="21" height="21" viewBox="0 0 21 21" fill="none">
  <path
        d="M16.031 14.617L20.314 18.899L18.899 20.314L14.617 16.031C13.0237 17.3082 11.042 18.0029 9 18C4.032 18 0 13.968 0 9C0 4.032 4.032 0 9 0C13.968 0 18 4.032 18 9C18.0029 11.042 17.3082 13.0237 16.031 14.617ZM14.025 13.875C15.2941 12.5699 16.0029 10.8204 16 9C16 5.132 12.867 2 9 2C5.132 2 2 5.132 2 9C2 12.867 5.132 16 9 16C10.8204 16.0029 12.5699 15.2941 13.875 14.025L14.025 13.875Z"
        fill="currentColor"
      />
</symbol>
<symbol xmlns="http://www.w3.org/2000/svg" id="logo" width="29" height="40" viewBox="0 0 29 40" fill="none">
 <g clip-path="url(#clip0_1775_3678)">
<path fill-rule="evenodd" clip-rule="evenodd" d="M14.5011 17.4177L8.99621 22.9015L14.5011 28.3853L20.006 22.9015L14.5011 17.4177ZM3.16748 22.9015L14.5011 34.1917L25.8348 22.9015L14.5011 11.6113L3.16748 22.9015Z" fill="#66B1F1"/>
<path fill-rule="evenodd" clip-rule="evenodd" d="M14.5007 5.80569L6.08142 14.1927L14.5007 22.5797L22.92 14.1927L14.5007 5.80569ZM0.252686 14.1927L14.5007 28.3861L28.7487 14.1927L14.5007 -0.000706092L0.252686 14.1927Z" fill="#1C629E"/>
<path fill-rule="evenodd" clip-rule="evenodd" d="M14.4977 28.3825L11.5834 31.2857L14.4977 34.1889L17.4121 31.2857L14.4977 28.3825ZM5.75464 31.2857L14.4977 39.9953L23.2408 31.2857L14.4977 22.5761L5.75464 31.2857Z" fill="#FFC540"/>
<path d="M3.16748 22.9015L6.08185 19.9983L17.4155 31.2885L14.5011 34.1917L3.16748 22.9015Z" fill="#66B1F1"/>
</g>
<defs>
<clipPath id="clip0_1775_3678">
<rect width="29" height="40" fill="white"/>
</clipPath>
</defs>
</symbol>


<symbol xmlns="http://www.w3.org/2000/svg" id='logo-footer' width="29" height="40" viewBox="0 0 29 40" fill="none">
  <g clip-path="url(#clip0_1791_9395)">
<path fill-rule="evenodd" clip-rule="evenodd" d="M14.5011 17.4177L8.99621 22.9015L14.5011 28.3853L20.006 22.9015L14.5011 17.4177ZM3.16748 22.9015L14.5011 34.1917L25.8348 22.9015L14.5011 11.6113L3.16748 22.9015Z" fill="#969696"/>
<path fill-rule="evenodd" clip-rule="evenodd" d="M14.5007 5.80573L6.08142 14.1927L14.5007 22.5798L22.92 14.1927L14.5007 5.80573ZM0.252686 14.1927L14.5007 28.3862L28.7487 14.1927L14.5007 -0.000675574L0.252686 14.1927Z" fill="#525252"/>
<path fill-rule="evenodd" clip-rule="evenodd" d="M14.4977 28.3826L11.5834 31.2858L14.4977 34.189L17.4121 31.2858L14.4977 28.3826ZM5.75464 31.2858L14.4977 39.9954L23.2408 31.2858L14.4977 22.5762L5.75464 31.2858Z" fill="#DADADA"/>
<path d="M3.16748 22.9015L6.08185 19.9983L17.4155 31.2885L14.5011 34.1917L3.16748 22.9015Z" fill="#969696"/>
</g>
<defs>
<clipPath id="clip0_1791_9395">
<rect width="29" height="40" fill="white"/>
</clipPath>
</defs>
</symbol>

<symbol width="50" height="50" viewBox='0 0 50 50' xmlns="http://www.w3.org/2000/svg" id="close">

<g>
  <path stroke="null" id="svg_1" fill="currentColor" d="m1.559965,1.426515c-1.839646,1.839647 -1.839646,4.822238 0,6.661885l16.888305,16.88822l-16.888305,16.888597c-1.839646,1.839506 -1.839646,4.822285 0,6.661791c1.839599,1.839506 4.822236,1.839506 6.661835,0l16.888258,-16.888597l16.888588,16.888597c1.839505,1.839506 4.822283,1.839506 6.661788,0c1.839505,-1.839506 1.839505,-4.822285 0,-6.661791l-16.888588,-16.888597l16.888588,-16.888173c1.839505,-1.8396 1.839505,-4.822238 0,-6.661838c-1.839976,-1.839647 -4.822283,-1.839647 -6.661788,0l-16.888588,16.88822l-16.888258,-16.888314c-1.839599,-1.8396 -4.822236,-1.8396 -6.661835,0z"/>
 </g>
</symbol>

<symbol id='pen' width="24" height="24" viewBox="0 0 24 24" fill="none" xmlns="http://www.w3.org/2000/svg">
<path d="M11 4H4C3.46957 4 2.96086 4.21071 2.58579 4.58579C2.21071 4.96086 2 5.46957 2 6V20C2 20.5304 2.21071 21.0391 2.58579 21.4142C2.96086 21.7893 3.46957 22 4 22H18C18.5304 22 19.0391 21.7893 19.4142 21.4142C19.7893 21.0391 20 20.5304 20 20V13" stroke="currentColor" stroke-width="1.5" stroke-linecap="round" stroke-linejoin="round"/>
<path d="M18.5 2.50023C18.8978 2.1024 19.4374 1.87891 20 1.87891C20.5626 1.87891 21.1022 2.1024 21.5 2.50023C21.8978 2.89805 22.1213 3.43762 22.1213 4.00023C22.1213 4.56284 21.8978 5.1024 21.5 5.50023L12 15.0002L8 16.0002L9 12.0002L18.5 2.50023Z" stroke="currentColor" stroke-width="1.5" stroke-linecap="round" stroke-linejoin="round"/>
</symbol>


<symbol id='cart' width="25" height="25" viewBox="0 0 25 25" fill="none" xmlns="http://www.w3.org/2000/svg">
<g clip-path="url(#clip0_6215_966)">
<path fill-rule="evenodd" clip-rule="evenodd" d="M1.25 2.5C0.697715 2.5 0.25 2.94772 0.25 3.5C0.25 4.05228 0.697715 4.5 1.25 4.5H2.93121C3.33124 4.5 3.69277 4.7384 3.85035 5.10608L8.69161 16.4023C9.25044 17.7063 10.6463 18.4405 12.0374 18.1623L19.308 16.7082C20.3637 16.4971 21.2253 15.7365 21.5657 14.7151L23.3212 9.44868C23.9687 7.50609 22.5228 5.5 20.4751 5.5H6.19511L5.68864 4.31824C5.21591 3.21519 4.13129 2.5 2.93121 2.5H1.25ZM10.5299 15.6145L7.05225 7.5H20.4751C21.1577 7.5 21.6397 8.1687 21.4238 8.81623L19.6683 14.0827C19.5549 14.4231 19.2677 14.6767 18.9158 14.747L11.6452 16.2012C11.1815 16.2939 10.7162 16.0492 10.5299 15.6145Z" fill="currentColor"/>
<path d="M11.25 22.5C11.25 23.6046 10.3546 24.5 9.25 24.5C8.14543 24.5 7.25 23.6046 7.25 22.5C7.25 21.3954 8.14543 20.5 9.25 20.5C10.3546 20.5 11.25 21.3954 11.25 22.5Z" fill="currentColor"/>
<path d="M21.25 22.5C21.25 23.6046 20.3546 24.5 19.25 24.5C18.1454 24.5 17.25 23.6046 17.25 22.5C17.25 21.3954 18.1454 20.5 19.25 20.5C20.3546 20.5 21.25 21.3954 21.25 22.5Z" fill="currentColor"/>
</g>
<defs>
<clipPath id="clip0_6215_966">
<rect width="24" height="24" fill="white" transform="translate(0.25 0.5)"/>
</clipPath>
</defs>
</symbol>

<symbol id='added-cart' width="25" height="25" viewBox="0 0 26 25" fill="none" xmlns="http://www.w3.org/2000/svg">
<path fill-rule="evenodd" clip-rule="evenodd" d="M1 2.5C0.447715 2.5 0 2.94772 0 3.5C0 4.05228 0.447715 4.5 1 4.5H2.68121C3.08124 4.5 3.44277 4.7384 3.60035 5.10608L8.44161 16.4023C9.00044 17.7063 10.3963 18.4405 11.7874 18.1623L19.058 16.7082C20.1137 16.4971 20.9753 15.7365 21.3157 14.7151L23.0712 9.44868C23.7187 7.50609 22.2728 5.5 20.2251 5.5H5.94511L5.43864 4.31824C4.96591 3.21519 3.88129 2.5 2.68121 2.5H1ZM10.2799 15.6145L6.80225 7.5H20.2251C20.9077 7.5 21.3897 8.1687 21.1738 8.81623L19.4183 14.0827C19.3049 14.4231 19.0177 14.6767 18.6658 14.747L11.3952 16.2012C10.9315 16.2939 10.4662 16.0492 10.2799 15.6145Z" fill="currentColor"/>
<path d="M11 22.5C11 23.6046 10.1046 24.5 9 24.5C7.89543 24.5 7 23.6046 7 22.5C7 21.3954 7.89543 20.5 9 20.5C10.1046 20.5 11 21.3954 11 22.5Z" fill="currentColor"/>
<path d="M21 22.5C21 23.6046 20.1046 24.5 19 24.5C17.8954 24.5 17 23.6046 17 22.5C17 21.3954 17.8954 20.5 19 20.5C20.1046 20.5 21 21.3954 21 22.5Z" fill="currentColor"/>
<circle cx="20" cy="6.5" r="5.25" fill="currentColor" stroke="#04B19E" stroke-width="1.5"/>
<path d="M22 5.5L19.25 7.5L18 6.59091" stroke="#04B19E" stroke-width="1.5" stroke-linecap="round" stroke-linejoin="round"/>
</symbol>


</svg>