<svg width="0" height="0">

<symbol id='apple-pay' width="70" height="48" viewBox="0 0 70 48" fill="none" xmlns="http://www.w3.org/2000/svg">
<rect x="0.5" y="0.5" width="69" height="47" rx="5.5" fill="currentColor" stroke="#D9D9D9"/>
<path fill-rule="evenodd" clip-rule="evenodd" d="M19.1601 16.6863C18.5726 17.3901 17.6325 17.9452 16.6924 17.8659C16.5749 16.9143 17.0352 15.9032 17.5737 15.2787C18.1613 14.5551 19.1895 14.0397 20.0219 14C20.1198 14.9913 19.7379 15.9627 19.1601 16.6863ZM20.012 18.0542C19.1838 18.006 18.4281 18.3064 17.8177 18.549C17.4249 18.7051 17.0923 18.8373 16.8392 18.8373C16.5552 18.8373 16.2089 18.6981 15.82 18.5417L15.82 18.5417L15.82 18.5417L15.82 18.5417C15.3104 18.3368 14.7278 18.1025 14.1169 18.1137C12.7166 18.1335 11.4142 18.9365 10.6993 20.2152C9.23044 22.7726 10.3174 26.5593 11.7373 28.6409C12.4326 29.6718 13.265 30.8018 14.3617 30.7622C14.8442 30.7438 15.1913 30.5947 15.5505 30.4404C15.9641 30.2628 16.3937 30.0782 17.0645 30.0782C17.712 30.0782 18.1228 30.2579 18.5172 30.4305C18.8921 30.5945 19.2522 30.752 19.7868 30.7424C20.9227 30.7225 21.6376 29.7115 22.3328 28.6806C23.0831 27.5741 23.4129 26.4943 23.4629 26.3304L23.4688 26.3114C23.4676 26.3102 23.4583 26.3059 23.4419 26.2984C23.1911 26.1821 21.274 25.2937 21.2557 22.9114C21.2372 20.9118 22.7762 19.8987 23.0185 19.7392C23.0332 19.7295 23.0432 19.723 23.0477 19.7196C22.0684 18.2525 20.5408 18.0939 20.012 18.0542ZM27.8755 30.6333V15.1796H33.6041C36.5615 15.1796 38.6277 17.2414 38.6277 20.2548C38.6277 23.2683 36.5223 25.3499 33.5258 25.3499H30.2453V30.6333H27.8755ZM30.2451 17.2018H32.9772C35.0336 17.2018 36.2087 18.312 36.2087 20.2648C36.2087 22.2175 35.0336 23.3377 32.9674 23.3377H30.2451V17.2018ZM46.452 28.7797C45.8253 29.989 44.4445 30.7523 42.9561 30.7523C40.7527 30.7523 39.2153 29.424 39.2153 27.4217C39.2153 25.4391 40.7038 24.2992 43.4555 24.1307L46.4128 23.9522V23.0998C46.4128 21.8409 45.6 21.1569 44.1508 21.1569C42.9561 21.1569 42.0845 21.7814 41.9083 22.733H39.7735C39.842 20.7307 41.7026 19.2735 44.2193 19.2735C46.9318 19.2735 48.6945 20.7108 48.6945 22.9412V30.6333H46.501V28.7797H46.452ZM43.5924 28.9185C42.3292 28.9185 41.5262 28.3039 41.5262 27.3622C41.5262 26.3908 42.2998 25.8257 43.7785 25.7365L46.4127 25.568V26.4403C46.4127 27.8876 45.1984 28.9185 43.5924 28.9185ZM55.9702 31.238C55.0204 33.9442 53.9334 34.8363 51.6224 34.8363C51.4461 34.8363 50.8585 34.8165 50.7214 34.7768V32.9232C50.8683 32.943 51.2307 32.9628 51.4167 32.9628C52.4645 32.9628 53.0521 32.5167 53.4144 31.357L53.6298 30.673L49.6149 19.4222H52.0924L54.8833 28.5517H54.9322L57.7231 19.4222H60.1321L55.9702 31.238Z" fill="#3C4043"/>
</symbol>

<symbol id='google-pay' width="70" height="48" viewBox="0 0 70 48" fill="none" xmlns="http://www.w3.org/2000/svg">
<rect x="0.5" y="0.5" width="69" height="47" rx="5.5" fill="currentColor" stroke="#D9D9D9"/>
<path fill-rule="evenodd" clip-rule="evenodd" d="M33.0603 31.5169V25.475H36.1786C37.4564 25.475 38.535 25.0468 39.4142 24.2024L39.6252 23.9883C41.2313 22.24 41.1258 19.5163 39.4142 17.8988C38.5584 17.0425 37.3861 16.5786 36.1786 16.6024H31.1729V31.5169H33.0603ZM33.0605 23.6434V18.434H36.2262C36.9063 18.434 37.5512 18.6957 38.0319 19.1714C39.052 20.1705 39.0754 21.8356 38.0905 22.8703C37.6098 23.3817 36.9297 23.6672 36.2262 23.6434H33.0605ZM48.4293 22.1091C47.6204 21.3599 46.5185 20.9793 45.1234 20.9793C43.3298 20.9793 41.9816 21.6453 41.0906 22.9655L42.7553 24.024C43.3649 23.1201 44.1973 22.6681 45.2524 22.6681C45.9206 22.6681 46.5653 22.9179 47.0694 23.3699C47.5618 23.798 47.8432 24.4165 47.8432 25.0706V25.5107C47.1163 25.1063 46.2019 24.8922 45.0765 24.8922C43.7635 24.8922 42.7084 25.2015 41.923 25.8318C41.1375 26.4622 40.739 27.2947 40.739 28.3532C40.7155 29.3166 41.1258 30.2324 41.8527 30.8509C42.5912 31.5169 43.5291 31.8499 44.631 31.8499C45.9323 31.8499 46.9639 31.2672 47.7494 30.1016H47.8314V31.5169H49.6368V25.2252C49.6368 23.9051 49.2382 22.8584 48.4293 22.1091ZM43.3066 29.6377C42.9197 29.3523 42.6852 28.8884 42.6852 28.3889C42.6852 27.8299 42.9432 27.3661 43.4473 26.9974C43.9632 26.6287 44.6081 26.4384 45.3702 26.4384C46.4255 26.4265 47.2462 26.6644 47.8325 27.1401C47.8325 27.9489 47.5159 28.6506 46.8945 29.2453C46.3317 29.8161 45.5696 30.1373 44.7723 30.1373C44.2446 30.1492 43.7287 29.9708 43.3066 29.6377ZM53.693 36.0008L60.0001 21.3123H57.9485L55.0295 28.6387H54.9943L52.0049 21.3123H49.9534L54.0916 30.8628L51.747 36.0008H53.693Z" fill="#3C4043"/>
<path d="M26.5443 24.1661C26.5443 23.5834 26.4974 23.0006 26.4036 22.4297H18.4436V25.7242H23.0039C22.8163 26.7827 22.2067 27.7342 21.3158 28.3289V30.4697H24.0355C25.6299 28.983 26.5443 26.7827 26.5443 24.1661Z" fill="#4285F4"/>
<path d="M18.444 32.5392C20.7183 32.5392 22.6408 31.778 24.0359 30.4697L21.3161 28.3289C20.5541 28.8522 19.5811 29.1496 18.444 29.1496C16.24 29.1496 14.376 27.6391 13.7078 25.6172H10.906V27.8294C12.3362 30.7195 15.2553 32.5392 18.444 32.5392Z" fill="#34A853"/>
<path d="M13.708 25.6177C13.3563 24.5592 13.3563 23.4055 13.708 22.3351V20.1348H10.9058C9.69808 22.5492 9.69808 25.4036 10.9058 27.818L13.708 25.6177Z" fill="#FBBC04"/>
<path d="M18.444 18.8023C19.6515 18.7785 20.812 19.2423 21.6795 20.0868L24.0945 17.6367C22.5588 16.1857 20.5424 15.3888 18.444 15.4126C15.2553 15.4126 12.3362 17.2442 10.906 20.1344L13.7078 22.3466C14.376 20.3128 16.24 18.8023 18.444 18.8023Z" fill="#EA4335"/>
</symbol>

<symbol id='master-card' width="70" height="48" viewBox="0 0 70 48" fill="none" xmlns="http://www.w3.org/2000/svg">
<rect x="0.5" y="0.5" width="69" height="47" rx="5.5" fill="currentColor" stroke="#D9D9D9"/>
<path fill-rule="evenodd" clip-rule="evenodd" d="M35.3948 34.7621C33.0116 36.8187 29.9203 38.0602 26.5423 38.0602C19.005 38.0602 12.8948 31.879 12.8948 24.2542C12.8948 16.6294 19.005 10.4482 26.5423 10.4482C29.9203 10.4482 33.0116 11.6897 35.3948 13.7463C37.7779 11.6897 40.8693 10.4482 44.2472 10.4482C51.7846 10.4482 57.8948 16.6294 57.8948 24.2542C57.8948 31.879 51.7846 38.0602 44.2472 38.0602C40.8693 38.0602 37.7779 36.8187 35.3948 34.7621Z" fill="#ED0006"/>
<path fill-rule="evenodd" clip-rule="evenodd" d="M35.3948 34.7621C38.3292 32.2299 40.1899 28.4618 40.1899 24.2542C40.1899 20.0466 38.3292 16.2786 35.3948 13.7463C37.7779 11.6897 40.8693 10.4482 44.2472 10.4482C51.7846 10.4482 57.8948 16.6294 57.8948 24.2542C57.8948 31.879 51.7846 38.0602 44.2472 38.0602C40.8693 38.0602 37.7779 36.8187 35.3948 34.7621Z" fill="#F9A000"/>
<path fill-rule="evenodd" clip-rule="evenodd" d="M35.3949 13.7461C38.3292 16.2784 40.1899 20.0463 40.1899 24.254C40.1899 28.4616 38.3292 32.2295 35.3949 34.7618C32.4605 32.2295 30.5999 28.4616 30.5999 24.254C30.5999 20.0463 32.4605 16.2784 35.3949 13.7461Z" fill="#FF5E00"/>
</symbol>

<symbol id='visa' width="70" height="48" viewBox="0 0 70 48" fill="none" xmlns="http://www.w3.org/2000/svg">
<rect x="0.5" y="0.5" width="69" height="47" rx="5.5" fill="currentColor" stroke="#D9D9D9"/>
<path fill-rule="evenodd" clip-rule="evenodd" d="M21.2505 32.5165H17.0099L13.8299 20.3847C13.679 19.8267 13.3585 19.3333 12.8871 19.1008C11.7106 18.5165 10.4142 18.0514 9 17.8169V17.3498H15.8313C16.7742 17.3498 17.4813 18.0514 17.5991 18.8663L19.2491 27.6173L23.4877 17.3498H27.6104L21.2505 32.5165ZM29.9675 32.5165H25.9626L29.2604 17.3498H33.2653L29.9675 32.5165ZM38.4467 21.5514C38.5646 20.7346 39.2717 20.2675 40.0967 20.2675C41.3931 20.1502 42.8052 20.3848 43.9838 20.9671L44.6909 17.7016C43.5123 17.2345 42.216 17 41.0395 17C37.1524 17 34.3239 19.1008 34.3239 22.0165C34.3239 24.2346 36.3274 25.3992 37.7417 26.1008C39.2717 26.8004 39.861 27.2675 39.7431 27.9671C39.7431 29.0165 38.5646 29.4836 37.3881 29.4836C35.9739 29.4836 34.5596 29.1338 33.2653 28.5494L32.5582 31.8169C33.9724 32.3992 35.5025 32.6338 36.9167 32.6338C41.2752 32.749 43.9838 30.6502 43.9838 27.5C43.9838 23.5329 38.4467 23.3004 38.4467 21.5514ZM58 32.5165L54.82 17.3498H51.4044C50.6972 17.3498 49.9901 17.8169 49.7544 18.5165L43.8659 32.5165H47.9887L48.8116 30.3004H53.8772L54.3486 32.5165H58ZM51.9936 21.4342L53.1701 27.1502H49.8723L51.9936 21.4342Z" fill="#172B85"/>
</symbol>


</svg>