<svg viewBox="0 0 400 400" xmlns="http://www.w3.org/2000/svg">
  <g stroke="null" id="svg_5">
   <path stroke="null" id="svg_4" fill="currentColor" d="m199.499993,397.958755c-110.487675,0 -200.055541,-88.796941 -200.055541,-198.334737c0,-109.5373 89.567867,-198.334737 200.055541,-198.334737c110.488175,0 200.055541,88.797437 200.055541,198.334737c0,109.537796 -89.567367,198.334737 -200.055541,198.334737zm0,-297.502105c-13.810834,0 -25.006943,11.099804 -25.006943,24.791842l0,99.167368c0,13.692534 11.196108,24.791842 25.006943,24.791842c13.811334,0 25.006943,-11.099308 25.006943,-24.791842l0,-99.167368c0,-13.692039 -11.195608,-24.791842 -25.006943,-24.791842zm0,223.126579c13.811334,0 25.006943,-11.099308 25.006943,-24.791842c0,-13.692534 -11.195608,-24.791842 -25.006943,-24.791842c-13.810834,0 -25.006943,11.099308 -25.006943,24.791842c0,13.692534 11.196108,24.791842 25.006943,24.791842z" clip-rule="evenodd" fill-rule="evenodd"/>
  </g>
</svg>